<svg preserveAspectRatio="none" overflow="visible" style="display: block;" width="130.355" height="59.365" viewBox="0 0 130.355 59.365" fill="none" xmlns="http://www.w3.org/2000/svg">
<g id="Future Land Logo &#226;&#128;&#148; White">
<path id="Vector" d="M38.4222 20.4513C39.3838 18.185 39.5959 17.403 41.3461 15.6077C44.7531 12.1128 48.8072 10.5281 53.6587 10.5027C53.7109 11.7987 53.6894 13.147 53.4797 14.4266C53.0452 17.1712 51.8666 19.7442 50.0721 21.8662C47.4915 24.8844 43.8274 26.6575 39.8993 26.9957C38.2367 27.1389 37.1803 26.9742 35.5388 27.4863C33.719 28.0541 32.719 28.7549 31.2242 29.8273C32.4188 31.6923 33.3083 33.3734 33.7431 35.5916C34.6013 39.97 33.681 43.6971 31.2768 47.352C32.9025 48.9192 34.4243 49.4932 36.5455 50.0306C36.4749 47.158 36.5207 43.7571 36.5497 40.8767L35.2647 39.5984C35.2453 38.7574 35.3241 36.8739 35.2064 36.1178L39.9035 40.098C40.5775 40.669 41.7403 41.5985 42.3286 42.2062C42.3832 45.5771 42.3334 49.1092 42.3342 52.4943C43.42 52.6957 44.6457 53.0672 45.7126 53.3786L45.7099 30.8681C44.1836 31.6384 42.6527 32.3997 41.1174 33.152C41.1439 34.9093 41.1035 36.6755 41.1196 38.4336C41.1244 38.9513 41.1072 39.4367 41.1742 39.9523C40.5923 39.4257 39.9383 38.8871 39.3378 38.3747L39.3312 32.1828C41.4758 31.0905 43.6096 29.9243 45.7538 28.8176C48.1237 29.8142 50.5513 30.7726 52.9043 31.797C52.8695 35.079 52.9027 38.4212 52.9028 41.7082L52.8946 56.2087C54.3993 56.9461 55.5728 57.6344 56.9682 58.5411C55.1648 58.4881 53.3089 58.5811 51.5003 58.549C50.6951 58.5347 50.5244 58.6081 49.7904 58.1833C49.1296 57.8008 48.3805 57.4167 47.6983 57.0772C46.3052 56.3829 44.8746 55.7664 43.4132 55.2307C41.5564 54.5669 39.6653 54.0035 37.7481 53.5428C36.2402 53.193 34.9366 53.1076 33.4646 52.4979C31.7058 51.7693 30.4032 50.9849 28.9495 49.7516C27.9942 50.7298 25.9336 51.8742 24.6716 52.4129C23.1227 53.0742 21.493 53.2731 19.8624 53.6533C18.1282 54.0702 16.4188 54.584 14.7422 55.1922C13.3443 55.6953 11.9732 56.2701 10.6344 56.9142C10.2915 57.0799 7.72834 58.4683 7.63758 58.4757C5.4783 58.6508 3.22978 58.4531 1.05078 58.565C2.15967 57.7561 3.44602 57.0779 4.65391 56.43L4.64076 43.4657C6.34298 42.1883 8.25403 40.9635 9.9974 39.6871C9.92242 41.2849 9.99524 43.1409 9.96978 44.7837C9.56375 45.1163 8.68201 45.6862 8.20865 46.0239L8.2229 41.8066C7.21062 42.5429 6.18659 43.2628 5.15113 43.966L5.16018 56.1939C6.48074 55.5424 7.83617 54.9638 9.22017 54.4607L9.21724 45.8404L10.9207 44.6676C10.8795 43.9458 10.9337 43.2233 10.9408 42.5011C10.9511 41.4605 10.9529 40.4199 10.9547 39.3793C11.3679 39.0242 12.2455 38.4497 12.7321 38.1097C13.8862 37.3092 15.0348 36.5007 16.1777 35.6842C16.9118 36.0072 18.6635 37.0805 19.4704 37.5213C19.4893 42.0444 19.5143 46.6742 19.465 51.1926C20.0221 50.9915 20.6521 50.7245 21.2088 50.5024C21.1482 48.1453 21.191 45.6176 21.1908 43.2418L21.2029 33.15C20.785 32.9679 19.8355 32.3946 19.4218 32.1573C18.3468 31.5445 17.2751 30.9257 16.207 30.3011C16.2829 31.454 16.2292 33.3894 16.2194 34.5883C15.2814 35.2128 14.3035 35.93 13.3803 36.586C13.4777 35.2545 13.393 32.7251 13.4009 31.2851C14.1882 30.6753 15.3402 29.9161 16.1855 29.3203C16.8631 29.6333 18.201 30.4472 18.8838 30.8426C19.783 31.3634 21.1927 32.1072 22.0157 32.6814C22.1232 38.3866 22.0071 44.4366 22.0276 50.1703C24.0016 49.1669 25.009 48.7837 26.8311 47.4274C22.9779 41.8898 23.065 35.4692 26.8406 29.9195C25.1035 28.1577 22.479 27.2966 20.0679 27.0725C18.8432 26.9587 17.7263 26.942 16.4972 26.7326C13.3663 26.2007 10.4973 24.6544 8.33219 22.3319C5.1051 18.8361 4.1603 15.1016 4.33814 10.506C11.3839 10.782 16.7296 13.5639 19.5625 20.3579C18.4947 20.3285 16.9842 20.1801 16.027 19.6501C15.5441 19.3829 14.9453 18.4254 14.5355 17.9828C12.4627 15.7434 10.5194 14.7338 7.64585 13.9688C7.91172 15.1309 8.12832 15.9739 8.64248 17.0826C10.2355 20.5264 13.3969 22.9867 17.1274 23.6857C18.0221 23.8494 19.1443 23.719 20.0978 23.7949C23.4026 24.0311 26.535 25.3597 29.0014 27.5714C31.0838 25.5323 35.1254 23.9582 38.0821 23.8053C40.9958 23.6547 42.2811 23.7837 44.9793 22.0714C48.152 20.0577 49.5381 17.6436 50.3822 14.0462C47.0867 14.7134 44.5239 16.4061 42.6316 19.1881C42.0052 20.1091 39.4666 20.3117 38.4222 20.4513ZM51.5899 43.8344C51.5636 43.1409 51.5705 42.4865 51.578 41.7932C51.1783 41.6733 50.6719 41.5363 50.2989 41.3718C50.3343 42.0282 50.2991 42.6813 50.2747 43.338C50.6966 43.5001 51.1658 43.6921 51.5899 43.8344ZM47.8432 42.5731C48.2529 42.7314 48.7276 42.9012 49.1268 43.0704C49.1268 42.3969 49.1162 41.6873 49.1307 41.017C48.6472 40.8753 48.302 40.7706 47.8381 40.5794L47.8432 42.5731ZM49.0846 39.6552L49.0907 37.6343C48.7742 37.532 48.1 37.3341 47.8218 37.2098C47.8404 37.8765 47.8518 38.5434 47.856 39.2104L49.0846 39.6552ZM51.5791 37.0794C51.5773 36.4563 51.5546 35.6613 51.5917 35.0543L50.2944 34.6333C50.3378 35.283 50.3263 35.9585 50.3257 36.6113L51.5791 37.0794ZM11.9387 42.5146C12.2296 42.3428 12.5853 42.1458 12.8554 41.9518C12.8577 41.6221 12.9098 39.8613 12.7961 39.7051C12.4948 39.9238 12.1905 40.1383 11.8832 40.3486C11.8809 40.6585 11.8158 42.3717 11.9387 42.5146ZM11.8721 43.681C11.8837 44.3702 11.8832 45.0596 11.8706 45.7488C11.8965 45.7727 11.9357 45.8162 11.9637 45.8258L12.8588 45.2931C12.8594 44.6914 12.888 43.6806 12.8396 43.113L12.7506 43.0628L11.8721 43.681ZM13.5933 44.8499C13.8902 44.6649 14.1942 44.4695 14.4928 44.2897C14.4854 43.9144 14.5276 42.2022 14.414 42.0514C14.1124 42.2623 13.7846 42.4824 13.4904 42.6991C13.4901 43.0753 13.4687 44.5539 13.5267 44.8359L13.5933 44.8499ZM12.8604 48.6203C12.8606 48.2967 12.9091 46.5124 12.7797 46.3793L11.8761 47.0154C11.8774 47.2926 11.8485 49.0842 11.9158 49.1794C12.2346 48.9962 12.5502 48.8179 12.8604 48.6203ZM29.0178 32.4937C27.2614 35.4795 26.7565 38.0583 27.5676 41.5335C27.7408 42.2756 28.4988 44.2941 29.0006 44.8216C30.7023 41.9762 31.2647 39.0257 30.4901 35.7502C30.3451 35.1368 29.4878 32.7985 29.0178 32.4937ZM14.4062 38.7403L13.4991 39.3428C13.4946 39.6947 13.4277 41.3064 13.5694 41.522L13.6596 41.4785L14.4932 40.9548C14.4875 40.6366 14.5183 38.9206 14.4664 38.7513L14.4062 38.7403ZM49.1005 36.2934C49.09 35.6186 49.116 34.9486 49.1369 34.2743C48.7408 34.1445 48.1855 33.9813 47.8092 33.8333C47.8471 34.2741 47.8669 35.3755 47.8283 35.8254C48.2374 35.9737 48.7019 36.1304 49.1005 36.2934ZM14.4482 45.3752C14.1247 45.5765 13.8072 45.7872 13.496 46.0072C13.4901 46.6527 13.4596 47.4763 13.5163 48.1066L13.5864 48.178L13.6529 48.1497L14.4979 47.6089C14.482 47.3276 14.51 45.4353 14.4482 45.3752ZM50.2989 37.9676C50.3215 38.4721 50.3526 39.4971 50.3105 40.0042L51.5447 40.4288C51.6223 39.828 51.5545 39.0683 51.5936 38.4431C51.1931 38.3113 50.6636 38.1543 50.2989 37.9676Z" fill="white"/>
<path id="Vector_2" d="M15.0953 52.5744C15.1728 52.5369 15.2393 52.5552 15.3271 52.5644C15.2783 52.6248 11.5908 53.687 11.0371 53.9076L10.8594 53.8862L10.8784 53.8198C12.2604 53.3284 13.6681 52.9127 15.0953 52.5744Z" fill="white"/>
<path id="Vector_3" d="M26.8516 47.4881C27.2068 47.5929 28.6106 49.2861 28.9147 49.6561C28.4704 49.5158 27.2012 47.934 26.8516 47.4881Z" fill="white"/>
<path id="Vector_4" d="M19.0579 51.2842L19.132 51.3179C18.9931 51.4954 17.8706 51.8449 17.5781 51.9459C17.545 51.9404 17.517 51.9158 17.4844 51.8949C17.6426 51.7525 18.7813 51.3818 19.0579 51.2842Z" fill="white"/>
<path id="Vector_5" d="M28.9879 0.865234C29.3062 0.889687 30.0873 1.76199 30.3192 2.00142C34.2916 6.10355 35.6437 12.1354 33.6804 17.5254C32.6717 20.2951 31.2793 21.9875 29.1244 23.9741C28.7943 23.9479 27.4074 22.4247 27.1092 22.0843C24.6065 19.1758 23.3384 15.4057 23.5749 11.5765C23.8703 7.26197 25.7543 3.69036 28.9879 0.865234ZM29.0848 19.3067C31.01 16.5279 31.7435 13.7633 31.1765 10.3654C30.9138 8.79108 30.0938 6.79888 29.0487 5.57597C27.1257 8.24216 26.4567 10.9289 26.8931 14.2386C27.0646 15.5393 28.1181 18.4839 29.0848 19.3067Z" fill="white"/>
<path id="Vector_6" d="M111.52 26.3133C111.621 26.4942 111.53 27.8254 111.464 28.0814C110.968 30.0297 108.904 29.6078 107.372 29.6684C105.023 29.7613 103.456 32.3613 104.567 34.4698C104.995 35.2705 105.724 35.8684 106.592 36.1316C107.719 36.469 109.053 36.213 109.739 35.1915C109.959 34.8649 110.034 34.5627 110.143 34.1902C110.102 34.1924 110.061 34.1942 110.02 34.1956C106.602 34.3143 107.149 33.4007 107.074 30.6516C107.221 31.0793 107.306 31.3635 107.646 31.6877C107.883 31.9151 108.174 32.0779 108.492 32.1606C109.163 32.3366 111.718 32.2269 112.576 32.208C112.706 32.7809 112.468 34.4502 112.321 35.0447C111.615 37.9065 108.663 39.1238 105.959 38.3512C104.533 37.9305 103.331 36.9651 102.612 35.6642C101.901 34.3788 101.752 32.7451 102.164 31.3429C102.451 30.3785 102.992 29.5092 103.732 28.8269C105.588 27.1066 107.495 27.3183 109.842 27.3263C110.691 27.3292 111.273 27.1976 111.52 26.3133Z" fill="white"/>
<path id="Vector_7" d="M43.3201 3.82227L43.5017 3.82988C43.6552 3.94687 43.73 4.22421 43.7724 4.41228C44.9424 9.59742 42.1528 14.0844 37.0607 15.4291C36.8874 15.4423 36.9529 15.456 36.8033 15.389C36.7481 15.2901 36.7008 15.1871 36.6719 15.0777C35.7725 11.677 36.729 8.0818 39.4536 5.77977C40.6963 4.72979 41.7731 4.27389 43.3201 3.82227Z" fill="white"/>
<path id="Vector_8" d="M14.6783 3.7852C15.2564 3.90531 15.8216 4.08067 16.3662 4.30884C18.5984 5.22308 20.366 7.00074 21.2671 9.23772C22.0004 11.06 22.1705 13.663 21.3922 15.4835C20.8427 15.3626 20.3039 15.1976 19.7809 14.9901C17.5926 14.1222 15.8405 12.4184 14.9124 10.2555C14.1253 8.39776 13.9177 5.66027 14.6783 3.7852Z" fill="white"/>
<path id="Vector_9" d="M95.1843 26.2266C97.7571 26.4061 98.0066 28.4187 97.9143 30.4436C97.8576 31.6895 97.8799 33.1252 97.9206 34.3813C97.9836 36.3316 100.497 35.4537 101.488 36.4446C102.242 37.1373 102.403 37.6433 102.509 38.6172C100.959 38.5759 99.3801 38.6874 97.8366 38.5801C96.5827 38.5045 95.2995 37.5743 95.2085 36.2473C95.1035 34.7165 95.1633 33.0791 95.1589 31.5352L95.15 28.1339C95.1493 27.6057 95.1251 26.72 95.1843 26.2266Z" fill="white"/>
<path id="Vector_10" d="M91.0431 30.1973L91.1029 30.1943L91.1405 30.3142C90.7223 32.5173 89.7115 32.9072 87.6168 32.9991C87.1878 33.0305 86.48 33.5457 86.4087 33.9794C86.0307 36.287 86.7391 38.0763 83.5744 38.5904C83.5095 38.5233 83.5088 32.9045 83.6349 32.2857C83.8806 31.0755 85.0562 30.2297 86.2884 30.2108C87.9026 30.1859 89.4582 30.2182 91.0431 30.1973Z" fill="white"/>
<path id="Vector_11" d="M86.1003 26.2431C87.9716 26.1957 89.9206 26.2693 91.7989 26.2401C92.5837 26.2279 93.4691 26.2735 94.238 26.2188C93.8784 28.8671 92.436 29.1049 90.1593 29.0898C88.9022 29.1 85.6662 28.8491 84.6752 29.3238C84.0323 29.6314 83.7574 30.0692 83.5391 30.7138C83.5505 28.6808 83.3869 26.5371 86.1003 26.2431Z" fill="white"/>
<path id="Vector_12" d="M127.583 41.434C130.048 41.2582 130.576 44.7134 128.379 45.4275C127.644 45.6664 127.245 45.4144 126.623 45.0643L126.564 45.1282C126.586 45.5148 126.577 45.9878 126.58 46.3813C126.288 46.363 125.921 46.3755 125.623 46.3772C125.621 44.8761 125.682 42.9682 125.602 41.511C125.894 41.5103 126.239 41.479 126.495 41.6045C126.534 41.7122 126.542 41.7261 126.601 41.8248C126.833 41.8326 127.123 41.5438 127.559 41.4397L127.583 41.434ZM127.969 44.6105C128.337 44.4341 128.607 44.2433 128.745 43.8362C128.838 43.5545 128.816 43.2477 128.683 42.9824C128.421 42.4576 127.965 42.3072 127.414 42.3236C127.05 42.4708 126.82 42.6073 126.654 42.9864C126.517 43.2917 126.512 43.6396 126.64 43.9487C126.894 44.5546 127.377 44.658 127.969 44.6105Z" fill="white"/>
<path id="Vector_13" d="M105.613 40.5926L106.544 40.577C106.533 42.1988 106.531 43.8206 106.538 45.4424C106.286 45.4444 105.859 45.4694 105.635 45.3956C105.605 45.2617 105.608 45.2419 105.613 45.1019L105.615 45.0637C105.059 45.0074 105.127 45.7691 103.6 45.3983C103.541 45.3696 103.483 45.3377 103.427 45.3027C102.422 44.6821 102.06 43.3753 102.708 42.3702C102.972 41.9627 103.387 41.6772 103.862 41.5768C104.519 41.4347 105.061 41.6243 105.602 41.9725L105.613 40.5926ZM104.793 44.6058C105.109 44.4671 105.187 44.3871 105.431 44.1592C105.827 42.9972 105.453 42.2606 104.167 42.325C103.809 42.5099 103.554 42.693 103.42 43.094C103.318 43.3921 103.344 43.7193 103.493 43.9973C103.648 44.283 103.913 44.4937 104.226 44.5817C104.403 44.6306 104.611 44.6187 104.793 44.6058Z" fill="white"/>
<path id="Vector_14" d="M118.46 41.5548C119.545 41.3174 120.618 42.0003 120.863 43.0836C121.107 44.1669 120.431 45.2442 119.349 45.4955C118.257 45.749 117.167 45.0655 116.921 43.9723C116.674 42.8792 117.365 41.7943 118.46 41.5548ZM119.123 44.6366C119.528 44.556 119.858 44.2629 119.986 43.8701C120.114 43.4774 120.02 43.0462 119.739 42.7429C119.459 42.4394 119.036 42.311 118.635 42.4071C118.03 42.5518 117.652 43.1539 117.785 43.7613C117.918 44.3688 118.513 44.7579 119.123 44.6366Z" fill="white"/>
<path id="Vector_15" d="M111.278 40.6211C112.037 40.6813 112.43 40.8441 113.055 41.2722C112.86 41.4898 112.669 41.7783 112.498 42.0205C111.65 41.29 110.488 41.3045 109.95 42.3749C109.746 42.7703 109.717 43.2326 109.868 43.6506C110.172 44.4876 111.141 44.8081 111.968 44.5306C112.374 44.3939 112.582 43.9544 112.737 43.5798C112.279 43.555 111.745 43.5694 111.281 43.5711C111.27 43.3644 111.236 43.1263 111.318 42.9408C111.547 42.8038 111.687 42.8437 111.976 42.8327C112.546 42.8231 113.116 42.8238 113.686 42.8346C113.783 44.1951 113.16 45.2716 111.734 45.4711C111.02 45.5756 110.295 45.3858 109.724 44.9454C108.196 43.7583 108.673 41.4307 110.413 40.7992C110.716 40.689 110.961 40.6578 111.278 40.6211Z" fill="white"/>
<path id="Vector_16" d="M85.4753 41.5572C86.691 41.4643 87.5923 42.0639 87.7877 43.3015C87.8984 43.9995 86.663 43.8245 86.2531 43.8236C85.7674 43.8225 85.2519 43.7999 84.7656 43.7871C85.1736 44.7892 85.861 44.9851 86.7273 44.3358C86.9927 44.4888 87.2696 44.6618 87.5331 44.821C86.7457 45.4238 85.8018 45.7954 84.8592 45.2598C84.3875 44.9921 84.0425 44.5472 83.9006 44.0239C83.5645 42.7665 84.264 41.847 85.4753 41.5572ZM84.7331 43.2046L86.0691 43.1884L86.8489 43.1847C86.628 42.6216 86.4065 42.226 85.7235 42.1831C85.2385 42.3769 85.0329 42.4814 84.8152 42.997C84.7866 43.0657 84.7592 43.1348 84.7331 43.2046Z" fill="white"/>
<path id="Vector_17" d="M95.0486 41.3715C96.8028 41.2354 97.4545 42.8053 97.3387 44.3005C97.2871 44.9619 97.326 45.0674 97.6302 45.5914L97.5526 45.6498C97.3998 45.6427 96.9702 45.6293 96.8569 45.5566C95.9524 44.9742 96.8562 43.3149 96.0663 42.586C95.4088 41.9793 94.7921 42.2178 94.2574 42.754C93.6133 44.1305 94.8404 45.1502 96.137 44.2619C96.1306 44.6324 96.1185 45.0029 96.1007 45.373L96.0714 45.3801C95.3732 45.5445 94.766 45.5807 94.1301 45.1778C93.675 44.8844 93.3542 44.4226 93.239 43.8935C93.1155 43.3478 93.2161 42.7752 93.5191 42.3045C93.901 41.7217 94.4013 41.4999 95.0486 41.3715Z" fill="white"/>
<path id="Vector_18" d="M100.002 41.5636C100.111 41.5519 100.22 41.5451 100.329 41.5431C102.257 41.5152 101.848 44.1564 101.852 45.5013L100.869 45.5201C100.854 44.5485 101.292 42.1738 99.7927 42.4305C98.9029 42.8439 99.1963 44.61 99.2224 45.5003L98.2174 45.5213C98.2518 44.2887 98.2174 42.8732 98.2148 41.6273C98.5643 41.6205 99.0277 41.551 99.2517 41.8538C99.4166 41.8513 99.8074 41.6427 100.002 41.5636Z" fill="white"/>
<path id="Vector_19" d="M70.449 41.5144L70.5718 41.51C71.0116 41.754 70.4248 43.9503 70.9735 44.3437C72.7149 45.5923 72.3387 42.3053 72.3209 41.5113C72.6735 41.5223 72.9848 41.5196 73.338 41.5106L73.3234 42.9235C73.3431 43.6958 73.3731 44.3966 72.7837 45.0051C72.4514 45.3437 71.9957 45.5334 71.5208 45.5311C69.3994 45.5388 69.7514 42.9558 69.7444 41.5421L70.449 41.5144Z" fill="white"/>
<path id="Vector_20" d="M79.3007 41.5049L80.3191 41.5236C80.2993 41.8058 80.3 42.1223 80.2942 42.4078C80.3063 43.0512 80.3617 43.8677 80.1275 44.4593C79.9588 44.8816 79.6253 45.2171 79.2039 45.3881C77.3052 46.1789 76.4708 44.0471 76.7127 42.5852C76.7629 42.2816 76.6414 41.8181 76.7744 41.5122L77.7145 41.5092C77.6992 42.1846 77.5643 44.1381 77.9958 44.4177C79.7252 45.5378 79.3108 41.9261 79.3007 41.5049Z" fill="white"/>
<path id="Vector_21" d="M123.915 41.529C124.224 41.5145 124.568 41.5149 124.88 41.5087L124.872 42.5009C124.88 43.2119 124.981 44.1496 124.589 44.7452C124.326 45.1385 123.915 45.4085 123.45 45.4938C121.351 45.8905 121.207 43.507 121.354 42.1191C121.377 41.9019 121.296 41.7074 121.434 41.5153C121.699 41.5322 122.06 41.5164 122.333 41.5126C122.317 42.1713 122.174 44.135 122.612 44.4239C124.308 45.5429 123.922 41.9264 123.915 41.529Z" fill="white"/>
<path id="Vector_22" d="M66.3281 40.5902C67.3376 40.6069 68.3471 40.6064 69.3566 40.5889C69.3299 40.856 69.3318 41.2831 69.3254 41.5647L67.302 41.5559C67.3268 41.8731 67.3179 42.3587 67.3211 42.6892C67.8481 42.6674 68.4076 42.6816 68.9378 42.6862C68.9276 42.9544 68.9282 43.2324 68.9257 43.5015C68.5947 43.5402 67.6648 43.4929 67.3166 43.4762C67.3306 44.1401 67.3211 44.8403 67.323 45.5072L66.3281 45.5064V40.5902Z" fill="white"/>
<path id="Vector_23" d="M89.9531 40.5966L90.8881 40.584C90.8633 41.8788 90.8837 43.2458 90.8824 44.546C91.5889 44.5345 92.3209 44.5437 93.03 44.5432C93.0064 44.8567 93.0115 45.1829 93.0109 45.4982C92.0689 45.5181 90.8646 45.4584 89.9569 45.5393C89.9684 43.8918 89.9678 42.2441 89.9531 40.5966Z" fill="white"/>
<path id="Vector_24" d="M74.6098 40.7255C74.7893 40.7211 74.9624 40.6974 75.1139 40.7913C75.2501 40.9636 75.1986 41.3096 75.1903 41.5463L76.1355 41.5225C76.1285 41.7956 76.1336 42.0876 76.133 42.3624L75.1833 42.3582C75.21 42.9862 74.9383 44.543 75.5977 44.7564C75.7593 44.7124 75.8453 44.6683 75.998 44.7265C76.1107 44.905 76.0649 45.09 76.0439 45.3044C76.0343 45.3764 76.0076 45.3942 75.9617 45.4585C73.6016 45.9071 74.6085 43.6914 74.3068 42.4004C73.895 42.3255 73.8174 42.2618 73.8848 41.8254C73.9039 41.7022 74.247 41.5619 74.375 41.4838C74.5277 41.2701 74.5583 40.9867 74.6098 40.7255Z" fill="white"/>
<path id="Vector_25" d="M116.351 41.5486C116.494 41.5295 116.516 41.5261 116.655 41.5594C116.797 41.764 116.741 42.2024 116.736 42.4804C116.296 42.5135 115.939 42.4606 115.611 42.8188C115.081 43.3964 115.257 44.7645 115.267 45.5233C114.995 45.508 114.561 45.5233 114.277 45.5246C114.366 44.745 114.303 42.4975 114.299 41.6315C114.572 41.6273 114.846 41.6304 115.119 41.641C115.27 41.7711 115.17 41.8586 115.235 42.1434C115.55 42.0694 115.65 41.7326 116.351 41.5486Z" fill="white"/>
<path id="Vector_26" d="M83.1786 41.5576C83.2931 41.5263 83.3148 41.5375 83.4351 41.5575C83.5598 41.7264 83.5013 42.2507 83.4911 42.489C81.6624 42.486 82.031 44.1701 82.052 45.5304C81.7566 45.5188 81.488 45.5212 81.194 45.5256L81.1335 45.4494C81.1672 44.75 81.166 42.1959 81.0781 41.6391C81.3881 41.6333 81.6433 41.635 81.9552 41.6484C82.1252 41.7787 81.9864 41.8363 82.0793 42.1386C82.4842 41.8656 82.6955 41.6667 83.1786 41.5576Z" fill="white"/>
<path id="Vector_27" d="M60.6719 27.1894C60.7545 27.2123 60.7832 27.2436 60.8492 27.2963C60.9125 27.8248 60.8843 28.8899 60.8849 29.4657L60.8874 33.4831C60.889 37.2976 60.883 41.1197 60.8887 44.9348C60.889 45.1079 60.8801 45.1994 60.8241 45.3633C60.7651 45.3274 60.6966 45.2854 60.6601 45.225C60.6317 45.1777 60.5108 28.0356 60.6719 27.1894Z" fill="white"/>
</g>
</svg>
